<svg xmlns:xlink="http://www.w3.org/1999/xlink" classname="svg-logo" width="325" height="40" viewBox="0 0 325 40" fill="none" xmlns="http://www.w3.org/2000/svg" data-v-73c37729="" data-v-ebc5013c=""><path fill="none" d="M0 0h324.15v40H0z" data-v-73c37729=""></path> <path fill="#3C4B5E" fillrule="evenodd" d="M17.11 40l.03-.02.03.02 8.52-4.96 8.59-5v-20l-3.86 2.25-2.26 1.43-4.92 2.9v4.58l7.18-4.21v7.28l-.06 3.44-13.22 7.7-13.22-7.7-.06-3.44V12.29l.03-.02.03.02 13.22-7.7 9.32 5.43 3.96-2.3L17.17 0l-.03.02-.03-.02L0 9.96v20.08l8.59 5L17.1 40z" cliprule="evenodd" data-v-73c37729=""></path> <path fill="#AFAFAF" fillrule="evenodd" d="M7 14.29l4.17 2.52v6.61l5.97 3.6 5.97-3.6v-1.17l4.17-2.52v6.3l-10.14 6.11L7 26.03V14.29z" cliprule="evenodd" data-v-73c37729=""></path> <path id="words" fill="#3C4B5E" d="M63.63 10.3h12.02v3.6h-8.12v3.3h7.67v3.6h-7.67v3.6h8.57V28H63.63V10.3zm15.6 0h6.84c.9 0 1.75.1 2.55.27.82.17 1.53.46 2.13.88.61.4 1.1.95 1.45 1.65.36.68.55 1.54.55 2.58 0 1.25-.33 2.31-.98 3.2a4.41 4.41 0 0 1-2.85 1.64l4.5 7.48h-4.67l-3.7-7.07h-1.93V28h-3.9V10.3zm3.9 7.32h2.3c.34 0 .71 0 1.1-.02.4-.03.75-.1 1.07-.23a1.74 1.74 0 0 0 1.1-1.72c0-.45-.1-.8-.28-1.07a1.73 1.73 0 0 0-.7-.6 2.9 2.9 0 0 0-.97-.3 7.95 7.95 0 0 0-1.08-.08h-2.55v4.03zm15.73 2.83L92.2 10.3h4.85l3.75 6.63 3.97-6.63h4.63l-6.65 10.15V28h-3.9v-7.55zm37.76-1.3c0-1.42.24-2.7.7-3.85a8.45 8.45 0 0 1 5.03-4.8 10.9 10.9 0 0 1 3.82-.65c1.39 0 2.66.22 3.83.65a8.66 8.66 0 0 1 3.02 1.88c.85.8 1.51 1.77 1.98 2.92.48 1.15.72 2.43.72 3.85s-.24 2.7-.72 3.85a8.42 8.42 0 0 1-1.98 2.95A8.85 8.85 0 0 1 150 27.8a10.9 10.9 0 0 1-3.83.65 10.9 10.9 0 0 1-3.82-.65 8.85 8.85 0 0 1-3.03-1.85 8.72 8.72 0 0 1-2-2.95c-.46-1.15-.7-2.43-.7-3.85zm4.05 0a5.55 5.55 0 0 0 1.5 4.1c.49.5 1.06.9 1.73 1.18.68.28 1.44.42 2.27.42a5.7 5.7 0 0 0 2.25-.43 5.13 5.13 0 0 0 1.75-1.17c.49-.52.85-1.12 1.1-1.8.27-.7.4-1.47.4-2.3 0-.82-.13-1.57-.4-2.27a4.94 4.94 0 0 0-2.85-3 5.7 5.7 0 0 0-2.25-.43c-.83 0-1.59.14-2.27.43a5.22 5.22 0 0 0-2.85 3c-.25.7-.38 1.45-.38 2.27zm16.75 0c0-1.42.24-2.7.7-3.85a8.45 8.45 0 0 1 5.03-4.8 10.9 10.9 0 0 1 3.82-.65c1.39 0 2.66.22 3.83.65a8.66 8.66 0 0 1 3.02 1.88c.85.8 1.51 1.77 1.98 2.92.48 1.15.72 2.43.72 3.85s-.24 2.7-.72 3.85a8.44 8.44 0 0 1-1.98 2.95 8.85 8.85 0 0 1-3.02 1.85 10.9 10.9 0 0 1-3.83.65 10.9 10.9 0 0 1-3.82-.65 8.85 8.85 0 0 1-3.03-1.85 8.72 8.72 0 0 1-2-2.95c-.46-1.15-.7-2.43-.7-3.85zm4.05 0a5.58 5.58 0 0 0 1.5 4.1c.49.5 1.06.9 1.73 1.18.68.28 1.44.42 2.27.42a5.7 5.7 0 0 0 2.25-.43 5.14 5.14 0 0 0 1.75-1.17c.49-.52.85-1.12 1.1-1.8.27-.7.4-1.47.4-2.3 0-.82-.13-1.57-.4-2.27a4.95 4.95 0 0 0-2.85-3 5.7 5.7 0 0 0-2.25-.43c-.83 0-1.59.14-2.27.43a5.25 5.25 0 0 0-2.85 3c-.25.7-.38 1.45-.38 2.27zm17.7-8.85h5.85c1.42 0 2.76.16 4.03.47 1.28.32 2.4.84 3.35 1.55.95.7 1.7 1.62 2.25 2.75.56 1.14.85 2.51.85 4.13a8.19 8.19 0 0 1-3 6.55 9.8 9.8 0 0 1-3.18 1.68c-1.2.38-2.45.57-3.77.57h-6.38V10.3zm3.9 14.1h2.03c.9 0 1.73-.1 2.5-.27a5.49 5.49 0 0 0 2.02-.9c.57-.44 1.01-1 1.33-1.68.33-.7.5-1.55.5-2.55a4.77 4.77 0 0 0-3.75-4.78 8.18 8.18 0 0 0-2.33-.32h-2.3v10.5zm36.98-14.1h12.02v3.6h-8.12v3.3h7.67v3.6h-7.67v3.6h8.57V28h-12.47V10.3zm27.17 4.6a3.81 3.81 0 0 0-1.43-1.08 4.61 4.61 0 0 0-1.92-.37 4.95 4.95 0 0 0-3.68 1.63c-.45.5-.8 1.1-1.07 1.8-.25.7-.38 1.45-.38 2.27a6.06 6.06 0 0 0 1.45 4.1 4.67 4.67 0 0 0 3.55 1.6 4.23 4.23 0 0 0 3.65-1.9l3.25 2.42a6.77 6.77 0 0 1-2.85 2.33c-1.15.5-2.33.75-3.55.75a10.9 10.9 0 0 1-3.82-.65 8.85 8.85 0 0 1-3.03-1.85 8.72 8.72 0 0 1-2-2.95c-.46-1.15-.7-2.43-.7-3.85s.24-2.7.7-3.85a8.45 8.45 0 0 1 5.03-4.8 10.9 10.9 0 0 1 5.37-.5 7.56 7.56 0 0 1 3.13 1.22c.48.34.92.75 1.3 1.23l-3 2.45zm20.46 6.28c0 1.05-.16 2.01-.47 2.9a6.3 6.3 0 0 1-3.75 3.82c-.94.37-2.01.55-3.23.55a8.85 8.85 0 0 1-3.25-.55 6.59 6.59 0 0 1-2.35-1.52 6.46 6.46 0 0 1-1.4-2.3 8.53 8.53 0 0 1-.47-2.9V10.3h3.9v10.72a3.96 3.96 0 0 0 1 2.75c.31.34.69.6 1.12.8a3.8 3.8 0 0 0 2.88 0c.43-.2.8-.46 1.12-.8a4.14 4.14 0 0 0 1-2.75V10.3h3.9v10.88zm3.6-10.88h6.86c.9 0 1.75.1 2.55.27.81.17 1.52.46 2.12.88.62.4 1.1.95 1.45 1.65.37.68.55 1.54.55 2.58 0 1.25-.32 2.31-.97 3.2a4.41 4.41 0 0 1-2.85 1.64l4.5 7.48h-4.68l-3.7-7.07h-1.92V28h-3.9V10.3zm3.9 7.32h2.3c.36 0 .72 0 1.1-.02.4-.03.77-.1 1.08-.23a1.74 1.74 0 0 0 1.1-1.72c0-.45-.09-.8-.27-1.07a1.73 1.73 0 0 0-.7-.6 2.9 2.9 0 0 0-.98-.3 7.96 7.96 0 0 0-1.07-.08h-2.55v4.03zm12.27-7.32h3.9V28h-3.9V10.3zm10.87 3.45h-5.05V10.3h14v3.45h-5.05V28h-3.9V13.75zm15.28 6.7l-6.65-10.15h4.85l3.75 6.63 3.98-6.63h4.62l-6.65 10.15V28h-3.9v-7.55z" data-v-73c37729=""></path> <path id="letter-v" fill="#3C4B5E" d="M48.57 10.3h-4.45L51.2 28h3.12l7.3-17.7h-4.17L53 21.9h-.05l-4.38-11.6z" data-v-73c37729=""></path> <path id="letter-g" fill="#3C4B5E" d="M130.54 28.05c1.25-.27 2.45-.7 3.6-1.3V17.5h-6.92v3.6h3.17v2.88c-.37.2-.86.4-1.47.6-.62.18-1.35.27-2.2.27-.84 0-1.6-.14-2.28-.43a5.19 5.19 0 0 1-2.85-2.97 6.8 6.8 0 0 1-.38-2.3c0-.82.13-1.57.38-2.27a5.22 5.22 0 0 1 5.13-3.43c1 0 1.83.14 2.5.43.66.28 1.26.7 1.8 1.24l2.74-3a7.54 7.54 0 0 0-3.14-1.74 13.72 13.72 0 0 0-3.9-.53c-1.39 0-2.66.22-3.83.65a8.66 8.66 0 0 0-5.03 4.8c-.46 1.15-.7 2.43-.7 3.85s.24 2.7.7 3.85a8.72 8.72 0 0 0 2 2.95c.86.8 1.86 1.42 3.03 1.85 1.17.43 2.44.65 3.83.65 1.3 0 2.57-.13 3.82-.4z" data-v-73c37729=""></path> <path id="letter-s" fill="#3C4B5E" d="M213 13.75c.54.18.97.47 1.3.88l2.67-2.93a6.69 6.69 0 0 0-2.53-1.42 9.93 9.93 0 0 0-2.9-.43c-.87 0-1.7.13-2.52.38a5.62 5.62 0 0 0-3.67 2.88 5.41 5.41 0 0 0-.56 2.49c0 .98.2 1.78.6 2.38.42.6.93 1.08 1.55 1.45.62.36 1.28.65 2 .87.72.22 1.38.43 2 .65.62.22 1.13.48 1.53.8.41.3.62.72.62 1.25 0 .32-.08.6-.25.82-.15.24-.36.43-.62.58a3.2 3.2 0 0 1-.88.35 4.6 4.6 0 0 1-2.85-.32 4.2 4.2 0 0 1-1.5-1.25l-2.77 3.05a8.02 8.02 0 0 0 2.75 1.7c.98.34 2.05.52 3.2.52.91 0 1.78-.12 2.6-.35a6.2 6.2 0 0 0 2.17-1.08 5.18 5.18 0 0 0 1.5-1.82c.37-.73.55-1.6.55-2.57a4.5 4.5 0 0 0-.6-2.48 4.6 4.6 0 0 0-1.52-1.47 7.86 7.86 0 0 0-1.95-.86c-.7-.2-1.36-.4-1.98-.6-.6-.2-1.1-.44-1.5-.72-.4-.28-.6-.7-.6-1.22 0-.34.08-.62.25-.85.17-.24.38-.42.65-.55.27-.16.55-.26.85-.33a4.03 4.03 0 0 1 2.4.2z" data-v-73c37729=""></path></svg>